<svg width="120" height="23" viewBox="0 0 120 23" fill="none" xmlns="http://www.w3.org/2000/svg">
<path fill-rule="evenodd" clip-rule="evenodd" d="M102.407 0.130859C102.257 0.130859 102.136 0.249275 102.136 0.395348V7.44225C100.978 5.9911 99.1995 5.06798 97.0834 5.06798C93.6548 5.06798 90.5872 8.02836 90.5872 11.6802C90.5872 15.332 93.4956 18.2924 97.0834 18.2924C99.1995 18.2924 100.978 17.3693 102.136 15.9181V17.6753C102.136 17.8213 102.257 17.9397 102.407 17.9397H104.031C104.18 17.9397 104.301 17.8213 104.301 17.6753V0.395348C104.301 0.249275 104.18 0.130859 104.031 0.130859H102.407ZM102.136 11.6802C102.136 9.09957 100.181 7.00756 97.4443 7.00756C94.9681 7.00756 92.7526 9.09957 92.7526 11.6802C92.7526 14.2608 94.8531 16.3528 97.4443 16.3528C100.181 16.3528 102.136 14.2608 102.136 11.6802ZM60.9172 17.9397C60.7677 17.9397 60.6465 17.8213 60.6465 17.6753V2.1586H55.4894C55.3399 2.1586 55.2188 2.04019 55.2188 1.89411V0.408429C55.2188 0.262356 55.3399 0.143941 55.4894 0.143941H68.1368C68.2863 0.143941 68.4075 0.262356 68.4075 0.408429V1.89411C68.4075 2.04019 68.2863 2.1586 68.1368 2.1586H62.763V17.6753C62.763 17.8213 62.6418 17.9397 62.4923 17.9397H60.9172ZM66.4701 5.68516C66.4701 5.53907 66.5913 5.42063 66.7408 5.42063H68.2387C68.3867 5.42063 68.5072 5.53673 68.5094 5.68129L68.5449 8.0799C68.7369 7.65654 68.9905 7.25568 69.3065 6.8773C69.7494 6.34694 70.279 5.92338 70.8933 5.60479C71.5077 5.2862 72.1862 5.12783 72.9288 5.12783C73.236 5.12783 73.5262 5.14993 73.7976 5.19412C73.9674 5.22178 74.1195 5.25449 74.2539 5.2927C74.3834 5.32948 74.4518 5.46218 74.4191 5.58996L73.9863 7.28312C73.9451 7.44424 73.7639 7.528 73.6029 7.4747C73.4659 7.42933 73.3274 7.39433 73.187 7.369C72.942 7.3248 72.712 7.3027 72.4953 7.3027C71.8809 7.3027 71.3287 7.40951 70.8406 7.62129C70.3525 7.83307 69.9359 8.12956 69.5929 8.50892C69.2499 8.89013 68.9861 9.32657 68.8052 9.82195C68.6242 10.3173 68.5338 10.8477 68.5338 11.4131L68.5337 17.6753C68.5337 17.8213 68.4126 17.9398 68.2631 17.9398H66.7426C66.5931 17.9398 66.4719 17.8214 66.4719 17.6753L66.4701 5.68516ZM81.2037 18.2924C83.3198 18.2924 85.0983 17.3693 86.2563 15.9181V17.6753C86.2563 17.8213 86.3775 17.9397 86.527 17.9397H88.1511C88.3006 17.9397 88.4218 17.8213 88.4218 17.6753V5.68512C88.4218 5.53904 88.3006 5.42063 88.1511 5.42063H86.527C86.3775 5.42063 86.2563 5.53904 86.2563 5.68512V7.44225C85.0983 5.9911 83.3198 5.06798 81.2037 5.06798C77.7751 5.06798 74.7075 8.02836 74.7075 11.6802C74.7075 15.332 77.6159 18.2924 81.2037 18.2924ZM81.5646 16.3528C84.3015 16.3528 86.2563 14.2608 86.2563 11.6802C86.2563 9.09957 84.3015 7.00756 81.5646 7.00756C79.0884 7.00756 76.8729 9.09957 76.8729 11.6802C76.8729 14.2608 78.9734 16.3528 81.5646 16.3528ZM110.129 17.386C111.223 17.9897 112.477 18.2906 113.89 18.2906V18.2924C114.614 18.2924 115.32 18.2001 116.008 18.0136C116.696 17.8272 117.33 17.5798 117.909 17.2697C118.413 16.9997 118.856 16.6933 119.237 16.3493C119.334 16.2614 119.346 16.1162 119.268 16.0111L118.514 14.9886C118.421 14.8638 118.24 14.8422 118.117 14.9385C117.409 15.4943 116.754 15.873 116.157 16.0735C115.497 16.295 114.831 16.4058 114.162 16.4058C113.021 16.4058 112.047 16.1842 111.242 15.7412C110.437 15.2982 109.736 14.7668 109.302 13.9601C108.928 13.2676 108.775 12.8295 108.739 11.9906H119.715C119.86 11.9906 119.979 11.8792 119.986 11.7379L120.001 11.4137C120.001 10.6902 119.974 9.82699 119.686 9.01105C119.395 8.19511 118.991 7.57673 118.422 6.98231C117.85 6.3879 117.133 5.8761 116.345 5.53828C115.557 5.20046 114.631 5.068 113.671 5.068C112.658 5.068 111.621 5.17461 110.752 5.53828C109.882 5.90194 109.135 6.41144 108.511 7.06678C107.887 7.72211 107.412 8.39242 107.135 9.09943C106.824 9.89481 106.647 10.6902 106.647 11.6623C106.647 12.988 106.882 13.764 107.496 14.8439C108.113 15.9256 109.034 16.7842 110.129 17.386ZM108.821 10.3162C108.892 10.0126 109.012 9.75629 109.212 9.36456C109.61 8.58369 110.275 7.9074 111.018 7.50866C111.761 7.10992 112.658 6.98231 113.673 6.98231C114.543 6.98231 115.289 7.16691 115.914 7.53981C116.538 7.9127 117.174 8.32826 117.519 8.92268C117.775 9.36456 117.9 9.66781 117.936 10.3065V10.3162H108.821Z" fill="#303A48"/>
<path fill-rule="evenodd" clip-rule="evenodd" d="M16.1432 0.395348C16.1432 0.249275 16.022 0.130859 15.8725 0.130859H0.286918C0.137427 0.130859 0.0162406 0.249275 0.0162406 0.395348V4.35915C0.0162406 4.50522 0.137427 4.62364 0.286917 4.62364H9.25714L0.0788698 13.6305C0.0283584 13.6801 0 13.7472 0 13.8172V17.6823C0 17.8284 0.121186 17.9468 0.270677 17.9468H13.524L12.0985 19.3397C11.9928 19.443 11.9928 19.6104 12.0985 19.7137L14.7781 22.332C14.8838 22.4353 15.0552 22.4353 15.1609 22.332L21.7228 15.9201C21.8285 15.8168 21.8285 15.6494 21.7228 15.5461L15.1609 9.13418C15.0552 9.03089 14.8838 9.03089 14.7781 9.13418L12.0985 11.7525C11.9928 11.8558 11.9928 12.0232 12.0985 12.1265L13.4553 13.4523H7.12782L16.0641 4.70107C16.1147 4.65148 16.1432 4.5843 16.1432 4.51425V0.395348ZM35.4334 17.6753C35.4334 17.8213 35.5546 17.9398 35.7041 17.9398H39.9952C40.1447 17.9398 40.2659 17.8213 40.2659 17.6753V0.395359C40.2659 0.249286 40.1447 0.13087 39.9952 0.13087H35.7041C35.5546 0.13087 35.4334 0.249286 35.4334 0.395359V17.6753ZM44.8854 17.573C45.6122 18.0047 46.4958 18.2199 47.5344 18.2201C48.2952 18.2199 49.0146 18.0753 49.689 17.7881C50.3657 17.5007 50.945 17.1022 51.4304 16.5944C51.5054 16.516 51.5768 16.4361 51.6447 16.3548L51.7722 17.6997C51.785 17.8357 51.9019 17.9398 52.0417 17.9398H55.994C56.1435 17.9398 56.2647 17.8213 56.2647 17.6753V5.73097C56.2647 5.5849 56.1435 5.46649 55.994 5.46649H51.7029C51.5534 5.46649 51.4322 5.5849 51.4322 5.73097V12.4578C51.4322 12.7293 51.3817 12.978 51.277 13.2072C51.1742 13.4364 51.0352 13.6392 50.862 13.8173C50.6887 13.9954 50.4758 14.1258 50.225 14.2105C49.9742 14.2951 49.6926 14.3374 49.3805 14.3374C48.9835 14.3374 48.6442 14.2563 48.3681 14.0959C48.0902 13.9354 47.8737 13.7027 47.7185 13.3976C47.5615 13.0926 47.4839 12.7205 47.4839 12.2797V5.73097C47.4839 5.5849 47.3627 5.46649 47.2133 5.46649H42.9221C42.7726 5.46649 42.6514 5.5849 42.6514 5.73097V12.7628C42.6514 13.9142 42.8427 14.8946 43.2235 15.7075C43.6042 16.5203 44.1582 17.141 44.8854 17.573ZM22.2782 17.8485C22.8865 18.0963 23.5845 18.2199 24.3716 18.2201C25.1325 18.2199 25.8519 18.0753 26.5263 17.7881C27.203 17.5007 27.7823 17.1022 28.2677 16.5944C28.3426 16.516 28.4141 16.4361 28.482 16.3548L28.6094 17.6996C28.6223 17.8357 28.7391 17.9397 28.8789 17.9397H32.8313C32.9808 17.9397 33.102 17.8213 33.102 17.6753V5.73095C33.102 5.58488 32.9808 5.46646 32.8313 5.46646H28.5401C28.3907 5.46646 28.2695 5.58488 28.2695 5.73095V12.4578C28.2695 12.7293 28.2189 12.9779 28.1143 13.2072C28.0114 13.4364 27.8725 13.6392 27.6992 13.8172C27.526 13.9953 27.3131 14.1258 27.0623 14.2105C26.8114 14.2951 26.5299 14.3374 26.2177 14.3374C25.8208 14.3374 25.4815 14.2563 25.2054 14.0958C24.9275 13.9354 24.711 13.7026 24.5558 13.3976C24.3988 13.0925 24.3212 12.7205 24.3212 12.2797V5.73095C24.3212 5.58488 24.2 5.46646 24.0505 5.46646H19.7594C19.6099 5.46646 19.4887 5.58488 19.4887 5.73095V10.8919L23.9328 15.2344C24.2146 15.5098 24.2146 15.9564 23.9328 16.2318L22.2782 17.8485Z" fill="#FF7200"/>
</svg>
