<svg xmlns="http://www.w3.org/2000/svg" width="180" height="159" fill="#afadab" xmlns:v="https://vecta.io/nano"><path d="M64.725 139.696c-1.187-.865-2.278-1.477-3.434-1.877-1.163-.392-2.351-.605-3.615-.655-2.512-.109-5.249.341-7.869.954l-6.98 1.989-3.067 1.059s1.187.663 3.087 1.446 4.545 1.672 7.419 2.153c2.854.481 5.974.539 8.691-.21 2.701-.737 5-2.334 5.764-4.855l.004-.004zm-8.011-11.204c1.018 2.207 2.504 4.367 4.448 5.771.966.694 2.049 1.222 3.216 1.439 1.159.217 2.399.159 3.607-.334.06-2.641-.688-4.727-1.86-6.558-1.179-1.818-2.846-3.393-4.573-4.746s-3.494-2.479-4.822-3.281l-2.242-1.276.06.783.282 2.048c.294 1.687.853 3.952 1.884 6.158v-.004zm-18.855 5.895c2.624-.124 4.947-1.094 6.577-3.207-1.3-2.246-3.281-3.456-5.651-4.165-2.367-.699-5.128-.889-7.841-.97l-7.411-.012-3.369.059.72.709 1.992 1.707c1.711 1.357 4.122 2.939 6.783 4.099s5.567 1.896 8.192 1.776l.008.004zm4.991-9.986c1.489 1.823 3.57 3.021 6.159 2.889 1.051-2.427.87-4.75.157-6.875s-1.972-4.072-3.244-5.771c-1.284-1.699-2.588-3.149-3.546-4.184l-1.159-1.222-.431-.446-.221.729c-.129.469-.274 1.14-.407 1.962a20.25 20.25 0 0 0-.036 6.298c.362 2.362 1.24 4.79 2.729 6.616v.004zm-32.129-18.13l-3.063-.892.346.795 1.107 2.012 1.747 2.781 1.087 1.528.306.396.378.48.793.958c2.174 2.494 4.859 4.402 7.499 5.201 2.641.818 5.201.554 7.39-1.032-.612-2.524-2.089-4.246-4.078-5.743-.487-.384-1.03-.725-1.574-1.086l-1.719-1.036-1.815-1.039-1.763-.857c-2.359-1.074-4.786-1.896-6.642-2.47v.004zm18.219 4.487c.7 2.183 2.339 3.975 4.818 4.526 1.731-2.04 2.278-4.27 2.419-6.376.125-2.109-.157-4.107-.39-5.782-.081-.71-.378-1.908-.648-2.847l-.87-2.559-.729-1.737-.253-.655s-.185.237-.463.663c-.302.43-.656 1.039-1.075 1.795-.821 1.516-1.815 3.634-2.504 5.984l-.447 1.799c-.121.566-.209 1.148-.266 1.738a12.28 12.28 0 0 0 .048 1.756c.06.582.201 1.14.362 1.695h-.004zM7.87 97.417c.431.508.93.95 1.445 1.369a13.51 13.51 0 0 0 1.574 1.132c2.162 1.342 4.565 1.9 7.185 1.167.221-1.26.125-2.412-.221-3.479a7.66 7.66 0 0 0-.701-1.536c-.282-.496-.644-.962-.974-1.443-1.409-1.885-3.578-3.51-5.764-4.96-2.125-1.466-4.363-2.73-6.07-3.642L1.49 84.562s.052.322.197.869l.708 2.226c.648 1.827 1.558 4.289 3.067 6.527.725 1.129 1.534 2.242 2.411 3.234H7.87zm14.15-.989c.507.993 1.26 1.869 2.294 2.571 2.375-1.311 3.739-3.277 4.456-5.402a12.1 12.1 0 0 0 .427-1.636l.133-.822.129-.845c.149-1.129.185-2.257.149-3.335l-.568-5.67-.37-1.765-.121-.659-.584.551c-.382.357-.853.873-1.409 1.524-1.111 1.315-2.5 3.188-3.623 5.367-1.067 2.152-1.755 4.588-1.739 6.899-.008.586.089 1.136.229 1.671a7.05 7.05 0 0 0 .592 1.551h.004zM3.314 76.646a15.67 15.67 0 0 0 1.083 1.664 14.75 14.75 0 0 0 1.32 1.423c1.872 1.745 4.122 2.746 6.839 2.501.459-1.194.596-2.339.467-3.444-.068-.551-.197-1.094-.378-1.633l-.62-1.598c-.499-1.059-1.196-2.09-1.997-3.099l-1.232-1.493-1.284-1.443c-1.779-1.889-3.744-3.614-5.108-4.902L.005 62.53s-.036 1.307.081 3.273c.072.981.282 2.121.515 3.343l.419 1.881c.157.632.318 1.287.576 1.92.483 1.276 1.051 2.536 1.715 3.704l.004-.004zm15.71 4.189c2.588-.861 4.319-2.513 5.454-4.417a12.43 12.43 0 0 0 .749-1.474 15.2 15.2 0 0 0 .66-1.54c.378-1.039.648-2.094.829-3.126l.531-2.943.129-1.322.097-1.171c.169-1.431.141-2.377.141-2.377s-1.006.531-2.435 1.528l-1.143.834-1.212 1.012a25.75 25.75 0 0 0-2.403 2.486l-1.127 1.447-.511.768-.427.791c-.539 1.059-.954 2.172-1.179 3.296-.097.558-.181 1.121-.165 1.671a7.29 7.29 0 0 0 .27 1.617c.306 1.059.861 2.055 1.739 2.924l.004-.004zM9.618 49.298l-1.892-3.234-1.739-2.734-1.763-2.606s-.386 1.241-.793 3.168l-.39 3.366-.105 1.916a22.77 22.77 0 0 0 .105 2.013c.125 1.35.302 2.718.66 4.006.399 1.295.922 2.521 1.586 3.579 1.284 2.137 3.357 3.622 6.05 3.987a7.53 7.53 0 0 0 .809-1.594c.189-.535.378-1.074.455-1.617.185-1.09.097-2.214-.177-3.355a16.98 16.98 0 0 0-1.099-3.448L9.61 49.298h.008zm14.632 9.963c.817-.768 1.506-1.633 2.081-2.532.636-.896 1.204-1.815 1.65-2.742l.64-1.361.596-1.299c.37-.842.628-1.629.869-2.304.539-1.33.761-2.23.761-2.23s-1.107.26-2.757.857c-1.687.582-3.715 1.575-5.732 2.955l-1.461 1.117-1.288 1.26c-.801.888-1.534 1.85-2.017 2.878-.455 1.028-.713 2.106-.713 3.188.008.535.052 1.078.229 1.613a7.24 7.24 0 0 0 .781 1.586c2.729-.248 4.686-1.458 6.36-2.986zm-7.942-16.858a6.8 6.8 0 0 0 .878-1.439 7.45 7.45 0 0 0 .507-1.578c.113-.546.157-1.113.221-1.679.08-1.14 0-2.35-.197-3.591l-.749-3.715-2.009-6.593-1.075-2.92-.451.76-1.047 2.094c-.869 1.741-1.731 4.231-2.278 6.841-.225 1.33-.37 2.691-.37 4.01-.016.655.052 1.322.161 1.962.097.648.229 1.264.415 1.858.378 1.191.894 2.249 1.711 3.161.805.911 1.823 1.644 3.075 2.16.487-.419.886-.865 1.212-1.33h-.004zm21.447-9.443l.354-.559-.801.019-2.093.175-2.967.504-1.675.419-1.683.578c-1.119.438-2.286.962-3.297 1.609-1.002.659-1.924 1.419-2.677 2.28-.39.423-.684.888-.942 1.373a8.4 8.4 0 0 0-.592 1.505 6.52 6.52 0 0 0-.209 1.609 6.45 6.45 0 0 0 .334 1.71 10.18 10.18 0 0 0 3.727-.089c1.127-.248 2.234-.655 3.208-1.194a13.84 13.84 0 0 0 1.401-.896 9.24 9.24 0 0 0 .644-.5l.648-.52c.853-.702 1.614-1.474 2.286-2.261a24.76 24.76 0 0 0 1.916-2.284l.391-.547.398-.52.688-.954.942-1.462-.004.004zm-14.081-6.585c1.163-.57 2.029-1.315 2.693-2.195.704-.857 1.188-1.861 1.514-2.971.704-2.172.817-4.766.789-7.271l-.076-1.881-.109-1.776-.318-3.161-.406-3.037-.596.644-1.473 1.78-1.9 2.699-1.807 3.378c-.519 1.226-.998 2.478-1.284 3.758-.286 1.287-.423 2.567-.362 3.785.165 2.466 1.171 4.669 3.341 6.247h-.004zm18.992-1.326l2.419-1.854 1.932-1.691 1.292-1.241.463-.481s-1.127-.241-2.89-.407c-.878-.081-1.888-.124-3.011-.116s-2.331.074-3.526.264c-2.427.341-4.871 1.136-6.738 2.47-.906.69-1.671 1.497-2.206 2.435a6.24 6.24 0 0 0-.696 3.242c2.512 1.055 4.887.962 7.048.357 1.107-.299 2.15-.737 3.12-1.26a21.33 21.33 0 0 0 2.798-1.718h-.004zm-4.83 98.968c7.149 5.713 15.864 9.622 24.414 12.949 6.996 2.726 15.972 7.178 25.118 11.328-8.22 2.466-16.331 4.479-22.848 5.534-.853.132 3.534 4.436 4.359 4.196 7.568-2.195 15.252-4.859 22.828-7.807 8.276 3.623 16.444 6.729 23.173 7.811.846.136 3.482-4.204 2.633-4.344-6.372-1.027-13.779-2.854-21.491-5.181 12.699-5.138 24.924-10.951 35.495-16.493 11.476-6.023 20.09-14.57 25.754-25.937 5.249-10.521 8.952-22.159 9.496-33.848.752-16.191-4.887-32.068-13.642-45.715-2.56-3.994-5.43-7.981-8.606-11.681.281-1.028.318-2.024.128-2.967-.213-1.117-.664-2.191-1.356-3.149-1.328-1.962-3.486-3.537-5.696-4.72-2.222-1.167-4.528-1.908-6.255-2.307-.87-.206-1.582-.318-2.081-.388l-.576-.058c-.117-.008-.185-.008-.185-.008a3.71 3.71 0 0 0 .076.167c.065.109.137.275.25.489l.962 1.772c.821 1.466 1.94 3.389 3.269 5.266.648.946 1.396 1.846 2.161 2.703a14.61 14.61 0 0 0 1.224 1.191c.414.38.845.733 1.312 1.043.93.605 1.904 1.105 3.003 1.373a9.08 9.08 0 0 0 2.649.229c6.102 6.953 11.093 15.028 14.897 23.129 4.839 10.319 7.419 21.57 7.141 32.902-.294 12.355-4.573 24.901-10.325 35.873-4.476 8.539-10.997 15.508-19.329 20.701-7.455 4.642-15.635 8.124-23.766 11.514-6.09 2.544-13.32 5.146-20.65 7.465-15.703-5.053-32.11-11.886-43.481-18.076-5.945-3.226-11.323-7.186-15.775-12.192-4.448-4.999-7.656-10.933-10.228-16.994-4.883-11.495-7.978-23.393-7.221-35.884.886-14.562 6.823-28.492 15.095-40.572 2.125-3.095 4.424-6.182 6.928-9.086.902.043 1.747-.05 2.556-.237 1.095-.268 2.065-.764 3.003-1.373.451-.31.894-.659 1.308-1.039a12.86 12.86 0 0 0 1.224-1.191c.773-.861 1.505-1.757 2.166-2.707 1.32-1.877 2.443-3.808 3.261-5.27l.958-1.776.258-.489L51.49 0h-.181a10.16 10.16 0 0 0-.568.062A21.79 21.79 0 0 0 48.66.45c-1.727.399-4.033 1.136-6.259 2.307-2.206 1.183-4.359 2.757-5.696 4.724-.688.962-1.151 2.036-1.353 3.141-.189.927-.153 1.908.113 2.916-5.841 6.686-10.671 14.384-14.419 22.093-4.617 9.532-7.411 19.84-7.833 30.373-.479 12.092 2.935 23.683 7.656 34.775 3.788 8.919 9.206 17.036 16.955 23.229l.012.008zm91.91 21.969c2.866-.473 5.507-1.365 7.415-2.148l3.083-1.443-3.067-1.066-6.976-1.99c-2.625-.608-5.354-1.062-7.87-.95-1.26.051-2.455.26-3.614.656s-2.242 1.012-3.43 1.873c.761 2.528 3.063 4.126 5.76 4.859 2.713.756 5.833.698 8.695.209h.004zm-14.105-9.066c1.159-.21 2.23-.741 3.208-1.432 1.94-1.411 3.425-3.563 4.448-5.766s1.578-4.476 1.884-6.166l.281-2.048.061-.779-2.238 1.268c-1.333.81-3.096 1.935-4.827 3.288-1.718 1.354-3.393 2.928-4.572 4.747-1.172 1.83-1.916 3.917-1.844 6.558 1.195.492 2.443.551 3.607.326l-.008.004zm33.423-9.645c-2.713.089-5.486.271-7.845.969-2.367.706-4.348 1.924-5.644 4.161 1.622 2.114 3.949 3.095 6.574 3.208 2.624.124 5.53-.613 8.191-1.777s5.076-2.737 6.779-4.103l2.004-1.706.717-.702-3.365-.058c-2.021-.012-4.706-.07-7.411.008zm-18.063 1.245c2.577.132 4.666-1.067 6.159-2.89 1.477-1.826 2.375-4.25 2.729-6.616.363-2.377.242-4.645-.044-6.301-.129-.826-.282-1.493-.41-1.967l-.222-.729-.431.446-1.151 1.222-3.546 4.18c-1.268 1.703-2.532 3.65-3.253 5.771-.7 2.137-.885 4.452.169 6.88v.004zm35.588-12.965l.797-.954.378-.489.302-.395 1.083-1.52 1.755-2.777 1.095-2.013.354-.799-3.067.896c-1.844.566-4.271 1.392-6.634 2.463l-1.763.861-1.816 1.031-1.718 1.047-1.574 1.086c-1.985 1.493-3.462 3.215-4.074 5.744 2.186 1.582 4.75 1.85 7.391 1.031 2.628-.799 5.325-2.707 7.495-5.208l-.004-.004zm-15.823-10.556c-.692-2.35-1.686-4.468-2.503-5.984l-1.075-1.796-.459-.663-.258.648-.728 1.741-.866 2.563c-.273.935-.575 2.137-.652 2.851-.233 1.671-.511 3.672-.39 5.782.141 2.106.688 4.34 2.411 6.376 2.492-.559 4.114-2.347 4.822-4.534.161-.551.306-1.113.367-1.695.052-.585.076-1.167.036-1.756a14.35 14.35 0 0 0-.258-1.738l-.443-1.795h-.004zm27.561-18.347l.194-.865-2.85 1.47c-1.711.911-3.949 2.172-6.066 3.642-2.198 1.443-4.364 3.079-5.769 4.96l-.986 1.439c-.286.496-.531 1.004-.696 1.54-.346 1.066-.439 2.218-.222 3.478 2.609.733 5.024.171 7.19-1.167.539-.33 1.062-.714 1.577-1.129.496-.418 1.007-.868 1.437-1.369.878-.993 1.691-2.106 2.412-3.234 1.505-2.245 2.411-4.7 3.063-6.531l.712-2.23.004-.004zm-22.639 13.581a6.87 6.87 0 0 0 2.299-2.579c.257-.489.443-1.012.592-1.547.132-.539.241-1.09.237-1.671.016-2.315-.676-4.743-1.739-6.907-1.135-2.172-2.52-4.045-3.623-5.356l-1.409-1.532-.583-.555-.125.663-.37 1.772c-.286 1.478-.423 3.502-.568 5.666-.044 1.082 0 2.21.153 3.335l.129.846.129.83a11.22 11.22 0 0 0 .43 1.629c.721 2.129 2.073 4.095 4.448 5.41v-.004zm16.814-29.481l-1.292 1.447-1.244 1.489c-.801 1.008-1.489 2.04-1.992 3.095-.258.524-.447 1.067-.612 1.602-.189.539-.322 1.082-.382 1.636-.129 1.105 0 2.249.471 3.44 2.709.248 4.971-.752 6.835-2.494.459-.434.905-.915 1.32-1.427.402-.52.745-1.078 1.083-1.664.664-1.167 1.231-2.428 1.71-3.704.258-.628.423-1.284.584-1.923l.415-1.873.515-3.339.081-3.269-2.396 2.09-5.096 4.898v-.004zm-9.778 8.388c.149-.528.242-1.07.274-1.617.016-.555-.068-1.117-.177-1.675-.221-1.117-.636-2.234-1.171-3.296l-.423-.787-.515-.764-1.127-1.45a25.21 25.21 0 0 0-2.404-2.486 14.53 14.53 0 0 0-1.211-1.008l-1.143-.834-2.444-1.532s-.016.946.141 2.381c.065.361.077.748.101 1.167l.133 1.319c.108.919.326 1.92.531 2.947.185 1.028.447 2.086.833 3.13a15.07 15.07 0 0 0 .656 1.54c.222.504.463.997.749 1.47 1.131 1.9 2.858 3.556 5.442 4.413.886-.873 1.445-1.865 1.747-2.916h.008zm4.847-21.721c-.273 1.14-.346 2.253-.173 3.351.081.547.266 1.082.459 1.621a7.47 7.47 0 0 0 .809 1.598 8.17 8.17 0 0 0 6.05-3.987c.668-1.066 1.18-2.284 1.59-3.58.355-1.291.54-2.649.656-4.01l.105-2.017-.105-1.912-.386-3.366-.797-3.165-1.763 2.61-1.739 2.734-1.888 3.238-1.711 3.44a16.95 16.95 0 0 0-1.111 3.452l.004-.008zm-5.156-.334c-.487-1.024-1.216-1.989-2.021-2.874l-1.284-1.264c-.447-.4-.97-.764-1.461-1.117-2.021-1.381-4.049-2.37-5.744-2.955-1.638-.597-2.761-.853-2.761-.853s.237.904.772 2.226l.87 2.308.596 1.295.644 1.369a18.24 18.24 0 0 0 1.646 2.742 13.69 13.69 0 0 0 2.081 2.532c1.675 1.524 3.635 2.73 6.364 2.978a6.97 6.97 0 0 0 .769-1.578c.181-.539.221-1.082.233-1.621 0-1.078-.265-2.16-.708-3.184l.004-.004zm3.711-34.972l-1.079 2.916-2.012 6.6c-.326 1.237-.544 2.474-.745 3.711-.193 1.245-.286 2.455-.193 3.591l.217 1.679a7.85 7.85 0 0 0 .507 1.578c.23.5.516.981.87 1.439a8.13 8.13 0 0 0 1.211 1.33c1.264-.512 2.279-1.245 3.08-2.156.821-.911 1.328-1.97 1.706-3.161.19-.593.327-1.214.435-1.858.089-.644.165-1.307.149-1.962-.008-1.322-.149-2.688-.37-4.014-.544-2.614-1.417-5.103-2.279-6.837l-1.042-2.102-.455-.752v-.004zm-8.09 18.475c-.258-.485-.552-.954-.946-1.373-.757-.857-1.675-1.621-2.677-2.28-1.007-.655-2.174-1.171-3.289-1.609l-1.687-.582a18.36 18.36 0 0 0-1.678-.419 30.87 30.87 0 0 0-2.959-.5l-2.085-.171-.805-.023.354.555.938 1.462.689.954.402.516.391.551c.543.741 1.187 1.52 1.912 2.284a18.56 18.56 0 0 0 2.278 2.261l.648.516.648.504a12.24 12.24 0 0 0 1.401.884c.966.543 2.081.958 3.216 1.202a9.9 9.9 0 0 0 3.724.081c.185-.574.301-1.148.326-1.71 0-.547-.073-1.086-.206-1.602a6.87 6.87 0 0 0-.591-1.505l-.004.004zm-1.703-12.992c2.174-1.575 3.176-3.777 3.337-6.244.069-1.218-.076-2.501-.358-3.789s-.753-2.532-1.284-3.758c-.532-1.214-1.188-2.338-1.816-3.378s-1.316-1.931-1.887-2.699-1.107-1.369-1.486-1.784l-.592-.636-.406 3.033-.318 3.161-.105 1.784-.076 1.881c-.028 2.505.084 5.096.781 7.275.334 1.109.809 2.106 1.513 2.967.664.88 1.534 1.629 2.701 2.191l-.004-.004zm-8.932-4.37c-1.868-1.338-4.307-2.137-6.738-2.478-1.196-.19-2.404-.252-3.527-.264l-3.011.12-2.886.403.459.485 1.284 1.237 1.936 1.691c.709.617 1.542 1.241 2.412 1.854a21.92 21.92 0 0 0 2.809 1.714c.974.527 2.009.97 3.116 1.26 2.161.613 4.528.706 7.048-.353.061-1.198-.189-2.288-.696-3.246-.54-.935-1.304-1.741-2.21-2.428l.004.004z"/></svg>